<?xml version="1.0" encoding="UTF-8" standalone="no"?>
<!-- Created with Inkscape (http://www.inkscape.org/) -->

<svg
   xmlns:dc="http://purl.org/dc/elements/1.1/"
   xmlns:cc="http://creativecommons.org/ns#"
   xmlns:rdf="http://www.w3.org/1999/02/22-rdf-syntax-ns#"
   xmlns:svg="http://www.w3.org/2000/svg"
   xmlns="http://www.w3.org/2000/svg"
   xmlns:sodipodi="http://sodipodi.sourceforge.net/DTD/sodipodi-0.dtd"
   xmlns:inkscape="http://www.inkscape.org/namespaces/inkscape"
   id="svg3055"
   version="1.1"
   inkscape:version="0.48.0 r9654"
   width="453"
   height="50"
   sodipodi:docname="recomendado.svg">
  <metadata
     id="metadata3061">
    <rdf:RDF>
      <cc:Work
         rdf:about="">
        <dc:format>image/svg+xml</dc:format>
        <dc:type
           rdf:resource="http://purl.org/dc/dcmitype/StillImage" />
        <dc:title />
      </cc:Work>
    </rdf:RDF>
  </metadata>
  <defs
     id="defs3059" />
  <sodipodi:namedview
     pagecolor="#ffffff"
     bordercolor="#666666"
     borderopacity="1"
     objecttolerance="10"
     gridtolerance="10"
     guidetolerance="10"
     inkscape:pageopacity="0"
     inkscape:pageshadow="2"
     inkscape:window-width="1920"
     inkscape:window-height="1003"
     id="namedview3057"
     showgrid="false"
     inkscape:zoom="2"
     inkscape:cx="194.27158"
     inkscape:cy="54.31596"
     inkscape:window-x="0"
     inkscape:window-y="24"
     inkscape:window-maximized="1"
     inkscape:current-layer="svg3055"
     showguides="true">
    <inkscape:grid
       type="xygrid"
       id="grid4709"
       empspacing="5"
       visible="true"
       enabled="true"
       snapvisiblegridlinesonly="true" />
  </sodipodi:namedview>
  <g
     inkscape:groupmode="layer"
     id="layer1"
     inkscape:label="Layer"
     style="display:inline"
     transform="translate(0,-138)" />
  <path
     style="fill:none;stroke:#e64b00;stroke-width:5.29999999999999980;stroke-linecap:round;stroke-linejoin:miter;stroke-miterlimit:4;stroke-opacity:1;stroke-dasharray:none;"
     d="m 444.61665,40.70041 c 0,0 -73.82248,-0.312712 -136.11802,-0.744676 C 260.15324,39.620502 207.08628,42.602877 151.99092,40.472895 97.40632,38.362658 54.745852,42.002533 49.17684,41.663 37.317734,40.939971 8.859443,40.703803 8.859443,40.703803"
     id="path3070"
     inkscape:connector-curvature="0"
     sodipodi:nodetypes="csssc" />
  <path
     inkscape:connector-curvature="0"
     id="path3254"
     style="font-size:28px;font-style:normal;font-variant:normal;font-weight:normal;font-stretch:normal;line-height:125%;letter-spacing:0px;word-spacing:0px;fill:#e64b00;fill-opacity:1;stroke:none;font-family:MV Boli;-inkscape-font-specification:MV Boli"
     d="m 15.57812,30.857422 c 0.51953,-2.087236 1.05729,-4.149408 1.61329,-6.186524 0.55598,-2.037099 1.09374,-4.099271 1.61328,-6.186523 0.0638,-0.273423 0.1276,-0.533188 0.1914,-0.779297 0.0638,-0.246079 0.12304,-0.492172 0.17774,-0.738281 0.0547,-0.246078 0.098,-0.49445 0.12988,-0.745117 0.0319,-0.250635 0.0479,-0.512679 0.0479,-0.786133 0,-0.209618 -0.0137,-0.401024 -0.041,-0.574219 -0.0274,-0.173159 -0.041,-0.369122 -0.041,-0.58789 -10e-6,-0.209617 0.0273,-0.432924 0.082,-0.669922 0.13671,-0.55597 0.3304,-0.970684 0.58106,-1.244141 0.25064,-0.273417 0.63117,-0.410136 1.1416,-0.410156 0.20963,2e-5 0.41242,0.02053 0.6084,0.06152 0.19595,0.04104 0.38964,0.08889 0.58105,0.143555 0.20963,0.06382 0.4261,0.11851 0.64942,0.164062 0.22329,0.04559 0.44888,0.06838 0.67675,0.06836 0.18228,2e-5 0.36002,-0.0091 0.53321,-0.02734 0.17316,-0.01821 0.3714,-0.03644 0.59472,-0.05469 0.2233,-0.01821 0.48762,-0.03644 0.79297,-0.05469 0.30533,-0.01821 0.69042,-0.02732 1.15528,-0.02734 0.25519,2.1e-5 0.55597,0.0091 0.90234,0.02734 0.34634,0.01825 0.70636,0.05926 1.08008,0.123047 0.37368,0.06382 0.75193,0.157246 1.13476,0.280273 0.3828,0.123067 0.74054,0.289408 1.07325,0.499024 0.33266,0.209654 0.6266,0.467141 0.88183,0.772461 0.25519,0.305357 0.4466,0.672218 0.57422,1.100586 0.0638,0.209652 0.10708,0.401058 0.12988,0.574218 0.0228,0.173194 0.0342,0.341814 0.0342,0.50586 -2e-5,0.556005 -0.14129,1.10288 -0.42383,1.640625 -0.31903,0.610691 -0.74969,1.182631 -1.29199,1.71582 -0.54233,0.533216 -1.17352,1.036796 -1.89355,1.510742 -0.28257,0.191418 -0.6107,0.38966 -0.98438,0.594727 -0.37371,0.205089 -0.74057,0.401052 -1.10058,0.58789 -0.36004,0.18686 -0.68361,0.357758 -0.97071,0.512696 -0.28712,0.154957 -0.48536,0.273447 -0.59472,0.355468 0.31899,0.154958 0.638,0.316742 0.95703,0.485352 0.31899,0.168629 0.64484,0.371428 0.97754,0.608398 0.33266,0.236988 0.6699,0.524097 1.01172,0.861329 0.34178,0.337246 0.69725,0.749681 1.0664,1.237304 0.36913,0.487636 0.75194,1.064133 1.14844,1.729492 0.39647,0.665369 0.8089,1.449222 1.2373,2.351563 0.10936,0.218752 0.16405,0.451174 0.16407,0.697266 -2e-5,0.191407 -0.0388,0.382813 -0.11621,0.574218 -0.0775,0.191407 -0.18231,0.364584 -0.31446,0.519532 -0.13218,0.154948 -0.2894,0.280273 -0.47168,0.375976 -0.18231,0.0957 -0.37827,0.143555 -0.58789,0.143555 -0.31903,0 -0.58335,-0.11849 -0.79297,-0.355469 -0.20965,-0.236978 -0.41017,-0.546874 -0.60156,-0.929687 -0.19142,-0.382811 -0.38966,-0.815754 -0.59473,-1.298829 -0.20509,-0.483069 -0.45802,-0.970699 -0.75878,-1.46289 -0.32814,-0.528641 -0.69045,-1.029943 -1.08692,-1.503906 -0.3965,-0.473953 -0.81805,-0.884109 -1.26465,-1.230469 -0.44662,-0.346347 -0.90691,-0.622063 -1.38086,-0.827149 -0.47397,-0.20507 -0.94792,-0.307609 -1.42187,-0.307617 l -0.20508,0 c -0.28256,8e-6 -0.53549,0.02507 -0.75879,0.0752 -0.22331,0.05014 -0.43979,0.09343 -0.64941,0.129882 -0.28256,-0.100252 -0.48764,-0.264315 -0.61524,-0.492187 -0.12761,-0.227856 -0.19141,-0.483064 -0.1914,-0.765625 l 0,-0.191406 -1.09375,4.30664 c -0.0365,0.136724 -0.0866,0.323572 -0.15039,0.560547 -0.0638,0.236983 -0.13673,0.496749 -0.21875,0.779297 -0.082,0.282555 -0.16635,0.578779 -0.25293,0.888672 -0.0866,0.309898 -0.16863,0.601564 -0.2461,0.875 -0.0775,0.273439 -0.14584,0.519532 -0.20508,0.738281 -0.0592,0.218751 -0.10254,0.382813 -0.12988,0.492188 -0.12761,0.227864 -0.28939,0.407877 -0.48535,0.540039 -0.19597,0.132161 -0.40788,0.198242 -0.63574,0.198242 -0.40105,0 -0.67904,-0.120768 -0.83399,-0.362305 -0.15495,-0.241536 -0.23242,-0.521809 -0.23242,-0.84082 0,-0.127603 0.009,-0.257486 0.0274,-0.389649 0.0182,-0.13216 0.041,-0.257485 0.0684,-0.375976 z m 6.7129,-15.421875 c -0.0547,0.182309 -0.13445,0.446631 -0.23926,0.792969 -0.10483,0.34637 -0.22104,0.738296 -0.34864,1.175781 -0.12761,0.437515 -0.26433,0.906915 -0.41015,1.408203 -0.14584,0.501315 -0.29168,1.004896 -0.4375,1.510742 -0.14584,0.505871 -0.28712,0.99578 -0.42383,1.469727 -0.13673,0.473968 -0.25977,0.897796 -0.36914,1.271484 0.18228,-0.236969 0.45572,-0.448883 0.82031,-0.635742 0.36458,-0.186839 0.77473,-0.362294 1.23047,-0.526367 0.35546,-0.127594 0.79296,-0.307606 1.3125,-0.540039 0.51952,-0.232411 1.06412,-0.499012 1.63379,-0.799805 0.56965,-0.300769 1.13931,-0.626615 1.70898,-0.977539 0.56965,-0.350898 1.08007,-0.710924 1.53125,-1.080078 0.45116,-0.369126 0.81802,-0.738267 1.10059,-1.107422 0.28254,-0.369125 0.42381,-0.726872 0.42383,-1.073242 -2e-5,-0.337223 -0.11851,-0.603825 -0.35547,-0.799805 -0.237,-0.195946 -0.53322,-0.344058 -0.88867,-0.444336 -0.35549,-0.100243 -0.74513,-0.166323 -1.16895,-0.198242 -0.42384,-0.03188 -0.81805,-0.04783 -1.18261,-0.04785 -0.65627,1.8e-5 -1.31252,0.04103 -1.96875,0.123047 -0.65627,0.08205 -1.31251,0.241554 -1.96875,0.478516 z" />
  <path
     inkscape:connector-curvature="0"
     id="path3256"
     style="font-size:28px;font-style:normal;font-variant:normal;font-weight:normal;font-stretch:normal;line-height:125%;letter-spacing:0px;word-spacing:0px;fill:#e64b00;fill-opacity:1;stroke:none;font-family:MV Boli;-inkscape-font-specification:MV Boli"
     d="m 34.77344,31.568359 c -1e-5,-0.319009 0.0456,-0.656248 0.13672,-1.011718 0.30989,-1.23958 0.67219,-2.454097 1.08691,-3.643555 0.41471,-1.189446 0.79069,-2.372062 1.12793,-3.547852 0.33723,-1.17577 0.61751,-2.16698 0.84082,-2.973632 0.2233,-0.806628 0.42154,-1.499336 0.59473,-2.078125 0.17317,-0.578762 0.33267,-1.077785 0.47851,-1.497071 0.14583,-0.419254 0.30533,-0.833968 0.47852,-1.24414 0.10937,-0.246077 0.23013,-0.501285 0.3623,-0.765625 0.13216,-0.264305 0.27571,-0.50812 0.43067,-0.731446 0.15494,-0.223288 0.31672,-0.40558 0.48535,-0.546875 0.16861,-0.141257 0.34406,-0.211894 0.52637,-0.211914 0.37368,2e-5 0.65851,0.06154 0.85449,0.184571 0.19595,0.123065 0.31672,0.234719 0.3623,0.334961 l 0.12305,0.560546 c 0.13671,-0.0091 0.31444,-0.03416 0.5332,-0.07519 0.21874,-0.041 0.43977,-0.08429 0.66309,-0.129883 0.22329,-0.04555 0.43065,-0.09113 0.62207,-0.136718 0.19139,-0.04556 0.33723,-0.08657 0.4375,-0.123047 0.60155,-0.164044 1.15754,-0.30532 1.66797,-0.423828 0.5104,-0.118471 0.99575,-0.216453 1.45605,-0.293946 0.46027,-0.07745 0.90005,-0.13442 1.31934,-0.170898 0.41925,-0.03644 0.84308,-0.05467 1.27148,-0.05469 0.41925,2e-5 0.76105,0.02281 1.02539,0.06836 0.26431,0.04559 0.47394,0.107115 0.62891,0.18457 0.15493,0.07749 0.26202,0.168639 0.32129,0.273437 0.0592,0.104837 0.0888,0.216491 0.0889,0.334961 -3e-5,0.109394 -0.0297,0.225605 -0.0889,0.348633 -0.0593,0.123065 -0.15725,0.239276 -0.29395,0.348633 -0.13674,0.109393 -0.31447,0.205096 -0.5332,0.287109 -0.21877,0.08205 -0.49221,0.136737 -0.82031,0.164063 -0.082,0.01825 -0.27118,0.05243 -0.56739,0.102539 -0.29624,0.05015 -0.61753,0.104835 -0.96386,0.164062 -0.34637,0.05926 -0.6745,0.116229 -0.98438,0.170899 -0.30991,0.0547 -0.5241,0.09572 -0.64258,0.123047 l 0.0137,0 c -0.0547,0.0091 -0.18459,0.04331 -0.38965,0.102539 -0.2051,0.05926 -0.45347,0.127621 -0.74512,0.205078 -0.29168,0.07749 -0.60841,0.166358 -0.95019,0.266601 -0.34182,0.100277 -0.67905,0.198259 -1.01172,0.293946 -0.3327,0.09572 -0.64032,0.186865 -0.92286,0.273437 -0.28256,0.0866 -0.51042,0.157243 -0.68359,0.211914 -0.556,0.218766 -0.99122,0.508154 -1.30566,0.868164 -0.31447,0.360041 -0.56284,0.763361 -0.74512,1.209961 -0.0365,0.08205 -0.0911,0.221042 -0.16406,0.416993 -0.0729,0.195976 -0.15268,0.419283 -0.23926,0.669921 -0.0866,0.250664 -0.18002,0.517265 -0.28027,0.799805 -0.10027,0.282564 -0.19598,0.551444 -0.28711,0.806641 -0.0912,0.255219 -0.17091,0.48764 -0.23926,0.697265 -0.0684,0.209646 -0.11622,0.364594 -0.14356,0.464844 -0.0273,0.09116 -0.0456,0.173187 -0.0547,0.246094 -0.009,0.07293 -0.0137,0.127613 -0.0137,0.164062 0,0.0547 0.0137,0.08204 0.041,0.08203 0.13671,9e-6 0.42154,-0.06151 0.85449,-0.184571 0.43294,-0.123037 0.9388,-0.275706 1.51758,-0.458008 0.57877,-0.182281 1.19856,-0.378244 1.85938,-0.58789 0.66079,-0.209625 1.29425,-0.405588 1.90039,-0.587891 0.6061,-0.18228 1.14614,-0.334949 1.62011,-0.458008 0.47395,-0.123035 0.81574,-0.184558 1.02539,-0.18457 0.319,1.2e-5 0.53319,0.05242 0.64258,0.157227 0.10936,0.104829 0.16405,0.22104 0.16406,0.348632 -1e-5,0.328136 -0.11622,0.615245 -0.34863,0.861329 -0.23244,0.246103 -0.52182,0.460296 -0.86816,0.642578 -0.10939,0.0547 -0.31219,0.134449 -0.6084,0.239258 -0.29624,0.104827 -0.61525,0.211923 -0.95703,0.321289 -0.34181,0.109384 -0.66766,0.214201 -0.97754,0.314453 -0.30991,0.100269 -0.53322,0.173185 -0.66992,0.21875 -0.89324,0.346362 -1.62013,0.631193 -2.18067,0.854492 -0.56055,0.223315 -1.014,0.405606 -1.36035,0.546875 -0.34636,0.141283 -0.61296,0.248379 -0.7998,0.321289 -0.18686,0.07292 -0.36004,0.134447 -0.51953,0.18457 -0.15952,0.05014 -0.33497,0.09799 -0.52637,0.143555 -0.19141,0.04558 -0.45574,0.109381 -0.79297,0.191406 -0.082,0.191413 -0.17774,0.4808 -0.28711,0.868164 -0.10938,0.387375 -0.2142,0.788416 -0.31445,1.203125 -0.10027,0.414718 -0.18458,0.799808 -0.25293,1.155274 -0.0684,0.355471 -0.10255,0.601565 -0.10254,0.738281 -10e-6,0.164065 0.0228,0.284833 0.0684,0.362305 0.0456,0.07748 0.10025,0.129884 0.16406,0.157226 0.0638,0.02735 0.1276,0.04102 0.19141,0.04102 0.0638,2e-6 0.11392,2e-6 0.15039,0 0.43749,2e-6 0.96386,-0.0638 1.5791,-0.191406 0.61522,-0.127602 1.22362,-0.296222 1.82519,-0.50586 0.57421,-0.200518 1.07551,-0.419268 1.50391,-0.65625 0.42837,-0.236975 0.83169,-0.458004 1.20996,-0.663086 0.37824,-0.205074 0.74738,-0.378251 1.10742,-0.519531 0.36002,-0.141271 0.75422,-0.216467 1.18262,-0.225586 0.0911,5e-6 0.19823,0.0091 0.32129,0.02734 0.12303,0.01823 0.23924,0.05241 0.34863,0.102539 0.10936,0.05014 0.19823,0.116215 0.2666,0.198242 0.0684,0.08204 0.0934,0.186853 0.0752,0.314453 -0.0365,0.264327 -0.16864,0.524092 -0.39649,0.779297 -0.22787,0.255211 -0.51498,0.501305 -0.86132,0.738281 -0.34637,0.236982 -0.73374,0.464846 -1.16211,0.683594 -0.4284,0.218752 -0.8659,0.426108 -1.3125,0.62207 -0.44663,0.195965 -0.88413,0.373699 -1.3125,0.533204 -0.4284,0.159505 -0.81121,0.298502 -1.14844,0.416992 -0.83855,0.291666 -1.6543,0.505859 -2.44727,0.642578 C 38.25976,33.181641 37.54882,33.25 36.91992,33.250001 36.22721,33.25 35.69629,33.120118 35.32715,32.860353 34.958,32.600587 34.77343,32.169923 34.77344,31.56836 z" />
  <path
     inkscape:connector-curvature="0"
     id="path3258"
     style="font-size:28px;font-style:normal;font-variant:normal;font-weight:normal;font-stretch:normal;line-height:125%;letter-spacing:0px;word-spacing:0px;fill:#e64b00;fill-opacity:1;stroke:none;font-family:MV Boli;-inkscape-font-specification:MV Boli"
     d="m 51.97266,26.755859 c -10e-6,-0.528639 0.0638,-1.127922 0.1914,-1.797851 0.1276,-0.669914 0.35091,-1.319327 0.66992,-1.948242 0.4375,-0.87499 0.92513,-1.720367 1.46289,-2.536133 0.53776,-0.815742 1.08919,-1.567695 1.6543,-2.25586 0.5651,-0.688136 1.1302,-1.298812 1.69531,-1.832031 0.5651,-0.533186 1.10286,-0.950178 1.61329,-1.250976 l -0.0137,0.01367 c 0.319,-0.200504 0.65624,-0.410139 1.01172,-0.628907 0.35546,-0.218731 0.72004,-0.419252 1.09375,-0.601562 0.37369,-0.182273 0.75194,-0.332664 1.13477,-0.451172 0.3828,-0.11847 0.76105,-0.177715 1.13476,-0.177734 0.3828,1.9e-5 0.74738,0.07749 1.09375,0.232421 0.34634,0.154967 0.6494,0.366881 0.90918,0.635743 0.25975,0.268898 0.46483,0.581072 0.61524,0.936523 0.15037,0.355486 0.22557,0.733741 0.22558,1.134766 -1e-5,0.282568 -0.016,0.503596 -0.0479,0.663086 -0.0319,0.15952 -0.0821,0.280288 -0.15039,0.362304 -0.0684,0.08205 -0.15496,0.132177 -0.25976,0.150391 -0.10484,0.01824 -0.22561,0.02736 -0.36231,0.02734 -0.20054,1.5e-5 -0.35776,-0.04328 -0.47168,-0.129883 -0.11395,-0.08657 -0.20509,-0.191391 -0.27344,-0.314453 -0.0684,-0.123031 -0.12078,-0.25975 -0.15722,-0.410157 -0.0365,-0.150374 -0.0798,-0.287093 -0.12989,-0.410156 -0.0501,-0.12303 -0.11394,-0.227848 -0.1914,-0.314453 -0.0775,-0.08657 -0.18459,-0.129866 -0.32129,-0.129883 -0.3646,1.7e-5 -0.7588,0.08205 -1.18262,0.246094 -0.42384,0.164079 -0.85678,0.382829 -1.29883,0.65625 -0.44207,0.273453 -0.88412,0.585627 -1.32617,0.936523 -0.44207,0.350927 -0.86362,0.708674 -1.26465,1.073243 -0.40105,0.364597 -0.77247,0.724622 -1.11425,1.080078 -0.34181,0.355481 -0.63575,0.674491 -0.88184,0.957031 -0.36459,0.464855 -0.69727,0.936534 -0.99805,1.415039 -0.30079,0.478526 -0.56055,0.966155 -0.77929,1.462891 -0.21876,0.496753 -0.38738,1.007169 -0.50586,1.53125 -0.1185,0.524095 -0.17774,1.068691 -0.17774,1.633789 0,0.437505 0.0615,0.820317 0.18457,1.148437 0.12304,0.32813 0.25748,0.610681 0.40332,0.847656 0.17317,0.273442 0.38737,0.462569 0.64258,0.567383 0.2552,0.104821 0.56054,0.15723 0.91602,0.157227 0.77473,3e-6 1.49022,-0.07291 2.14648,-0.21875 0.65624,-0.14583 1.28515,-0.341793 1.88672,-0.587891 0.60155,-0.246089 1.18944,-0.537756 1.76367,-0.875 0.57421,-0.337234 1.16665,-0.69726 1.77735,-1.080078 l 0.35546,0 c 0.11848,6e-6 0.23925,0.03191 0.36231,0.0957 0.12303,0.06381 0.2324,0.145839 0.32812,0.246094 0.0957,0.100266 0.17316,0.214198 0.23243,0.341797 0.0592,0.127609 0.0888,0.25977 0.0889,0.396484 -1e-5,0.300786 -0.1185,0.599288 -0.35547,0.895508 -0.23699,0.296228 -0.54005,0.578779 -0.90918,0.847656 -0.36915,0.268883 -0.78614,0.521813 -1.25097,0.758789 -0.46486,0.236982 -0.92287,0.446617 -1.37403,0.628907 -0.45118,0.182293 -0.87273,0.337241 -1.26464,0.464843 -0.39194,0.127606 -0.7064,0.214194 -0.94336,0.259766 -0.20053,0.04557 -0.39422,0.08887 -0.58106,0.129883 -0.18686,0.04102 -0.40789,0.08203 -0.66308,0.123047 -0.25522,0.04102 -0.56056,0.07292 -0.91602,0.0957 -0.35548,0.02279 -0.80209,0.03418 -1.33984,0.03418 -0.32814,1e-6 -0.62892,-0.05241 -0.90235,-0.157226 -0.27344,-0.104817 -0.51726,-0.227864 -0.73144,-0.369141 -0.2142,-0.141274 -0.39649,-0.289386 -0.54688,-0.444336 -0.15039,-0.154946 -0.27116,-0.287107 -0.3623,-0.396484 -0.53777,-0.628904 -0.92969,-1.248695 -1.17578,-1.859375 -0.2461,-0.610673 -0.36915,-1.280594 -0.36914,-2.009766 z" />
  <path
     inkscape:connector-curvature="0"
     id="path3260"
     style="font-size:28px;font-style:normal;font-variant:normal;font-weight:normal;font-stretch:normal;line-height:125%;letter-spacing:0px;word-spacing:0px;fill:#e64b00;fill-opacity:1;stroke:none;font-family:MV Boli;-inkscape-font-specification:MV Boli"
     d="m 68.55664,25.621094 c 0.16406,-0.683586 0.40104,-1.38313 0.71094,-2.098633 0.30989,-0.715485 0.67447,-1.433258 1.09375,-2.15332 0.41926,-0.720041 0.88639,-1.428699 1.40137,-2.125977 0.51496,-0.697252 1.06184,-1.37173 1.64062,-2.023437 0.57877,-0.651677 1.17577,-1.266911 1.79102,-1.845704 0.61522,-0.578758 1.23273,-1.109682 1.85253,-1.592773 0.29166,-0.200502 0.56054,-0.332663 0.80665,-0.396484 0.24608,-0.06378 0.50584,-0.09568 0.77929,-0.0957 0.29166,1.9e-5 0.55142,0.04331 0.7793,0.129882 0.22785,0.08661 0.45571,0.243834 0.68359,0.47168 0.0729,0.08205 0.15038,0.154966 0.23242,0.21875 0.082,0.06382 0.1595,0.09572 0.23243,0.0957 0.0182,1.9e-5 0.041,-0.02049 0.0684,-0.06152 0.0273,-0.041 0.0569,-0.08885 0.0889,-0.143555 0.0319,-0.05467 0.0706,-0.111635 0.11621,-0.170898 0.0456,-0.05923 0.10025,-0.102521 0.16407,-0.129883 0.15493,-0.0729 0.3395,-0.120749 0.55371,-0.143555 0.21417,-0.02277 0.43065,-0.03416 0.64941,-0.03418 0.41014,1.9e-5 0.80662,0.07522 1.18945,0.225586 0.3828,0.15041 0.72004,0.362323 1.01172,0.635743 0.69269,0.647152 1.21906,1.421891 1.57911,2.324218 0.36,0.902359 0.54001,1.873061 0.54003,2.91211 -2e-5,0.929699 -0.13674,1.932302 -0.41015,3.007812 -0.237,0.947926 -0.57652,1.868498 -1.01856,2.761719 -0.44207,0.893235 -0.9616,1.731776 -1.55859,2.515625 -0.59702,0.783858 -1.26239,1.499352 -1.99609,2.146484 -0.73374,0.647138 -1.51532,1.203127 -2.34473,1.667969 -0.82944,0.464844 -1.69533,0.827148 -2.59766,1.086914 -0.90235,0.259765 -1.81837,0.389648 -2.74804,0.389648 -0.8659,0 -1.64291,-0.132161 -2.33106,-0.396484 -0.68815,-0.264323 -1.27149,-0.63802 -1.75,-1.121094 -0.47852,-0.483071 -0.8431,-1.057289 -1.09375,-1.722656 -0.25065,-0.665361 -0.37598,-1.403642 -0.37598,-2.214844 0,-0.346349 0.0205,-0.694981 0.0615,-1.045898 0.041,-0.350905 0.10709,-0.708652 0.19824,-1.073242 z m 2.31055,0.916015 c -0.10027,0.455735 -0.1504,0.865891 -0.15039,1.230469 -1e-5,0.510421 0.0889,0.959314 0.2666,1.34668 0.17773,0.387373 0.42838,0.71094 0.75195,0.970703 0.32356,0.259768 0.71093,0.455731 1.16211,0.587891 0.45116,0.132163 0.94563,0.198243 1.4834,0.198242 0.63801,1e-6 1.28742,-0.100259 1.94824,-0.300782 0.6608,-0.200518 1.30565,-0.492184 1.93457,-0.875 0.62889,-0.382809 1.23501,-0.843095 1.81836,-1.380859 0.58332,-0.537755 1.12336,-1.148432 1.62012,-1.832031 0.49673,-0.683587 0.93878,-1.426425 1.32617,-2.228516 0.38735,-0.802074 0.69953,-1.654287 0.93652,-2.55664 0.0911,-0.328114 0.15721,-0.669911 0.19825,-1.025391 0.041,-0.355456 0.0615,-0.697253 0.0615,-1.025391 -2e-5,-0.528632 -0.0593,-1.034491 -0.17774,-1.517578 -0.1185,-0.483058 -0.31447,-0.911443 -0.58789,-1.285156 -0.27345,-0.373682 -0.63348,-0.672184 -1.08007,-0.895508 -0.44663,-0.22329 -0.99351,-0.334944 -1.64063,-0.334961 -0.0912,1.7e-5 -0.1618,0.03875 -0.21191,0.116211 -0.0501,0.07749 -0.10256,0.175473 -0.15723,0.293945 -0.0456,0.100277 -0.098,0.205095 -0.15723,0.314454 -0.0593,0.109391 -0.13673,0.207372 -0.23242,0.293945 -0.0957,0.0866 -0.2142,0.157242 -0.35547,0.211914 -0.14129,0.0547 -0.31674,0.08205 -0.52636,0.08203 -0.15497,1.6e-5 -0.29168,-0.03416 -0.41016,-0.102539 -0.1185,-0.06834 -0.23699,-0.161768 -0.35547,-0.280273 -0.0547,-0.05467 -0.10027,-0.09797 -0.13672,-0.129883 -0.0365,-0.03188 -0.0775,-0.04783 -0.12304,-0.04785 -0.082,1.7e-5 -0.18914,0.03647 -0.32129,0.109375 -0.13218,0.07293 -0.2689,0.159522 -0.41016,0.259766 -0.14129,0.100276 -0.27801,0.205094 -0.41016,0.314453 -0.13217,0.109391 -0.23471,0.205094 -0.30761,0.287109 -0.61981,0.638036 -1.23732,1.333022 -1.85254,2.084961 -0.61525,0.751966 -1.18263,1.528983 -1.70215,2.331055 -0.51954,0.802093 -0.97299,1.611012 -1.36035,2.426758 -0.38738,0.815763 -0.66765,1.601895 -0.84082,2.358398 z" />
  <path
     inkscape:connector-curvature="0"
     id="path3262"
     style="font-size:28px;font-style:normal;font-variant:normal;font-weight:normal;font-stretch:normal;line-height:125%;letter-spacing:0px;word-spacing:0px;fill:#e64b00;fill-opacity:1;stroke:none;font-family:MV Boli;-inkscape-font-specification:MV Boli"
     d="m 87.41016,31.376953 c 0.17317,-0.692706 0.41471,-1.462888 0.72461,-2.310547 0.30989,-0.847652 0.66764,-1.731765 1.07324,-2.652344 0.40559,-0.920565 0.85221,-1.854809 1.33984,-2.802734 0.48763,-0.947907 0.99348,-1.870757 1.51758,-2.768555 0.52408,-0.897773 1.06184,-1.745429 1.61328,-2.542968 0.55142,-0.797511 1.09602,-1.510727 1.63379,-2.139649 0.15494,-0.17316 0.34862,-0.387353 0.58105,-0.642578 0.23242,-0.255191 0.49218,-0.519514 0.7793,-0.792969 0.2871,-0.273419 0.58788,-0.544578 0.90235,-0.813476 0.31444,-0.268861 0.63117,-0.510398 0.95019,-0.72461 0.319,-0.214173 0.62889,-0.38735 0.92969,-0.519531 0.30077,-0.132141 0.57876,-0.198222 0.83398,-0.198242 0.34634,2e-5 0.66307,0.05926 0.9502,0.177734 0.28709,0.11851 0.53318,0.287129 0.73828,0.50586 0.20506,0.218769 0.36457,0.480813 0.47851,0.786133 0.11392,0.305356 0.17089,0.640317 0.1709,1.004882 -10e-6,0.154966 -0.0114,0.309914 -0.0342,0.464844 -0.0228,0.154965 -0.0524,0.31447 -0.0889,0.478516 l -1.51758,7.628906 c 0.1367,-0.209626 0.32811,-0.494457 0.57422,-0.854492 0.24607,-0.360016 0.52407,-0.761057 0.83398,-1.203125 0.30988,-0.442046 0.63345,-0.902332 0.9707,-1.38086 0.33723,-0.478502 0.66763,-0.941067 0.99122,-1.387695 0.32354,-0.4466 0.62205,-0.854477 0.8955,-1.223633 0.27342,-0.369125 0.49673,-0.667627 0.66992,-0.895508 l 0.2461,-0.314453 c 0.16404,-0.209619 0.36456,-0.455712 0.60156,-0.738281 0.23696,-0.282535 0.499,-0.578758 0.78613,-0.888672 0.28709,-0.309877 0.59015,-0.615216 0.90918,-0.916015 0.31899,-0.300762 0.64256,-0.569642 0.97071,-0.806641 0.3281,-0.236959 0.65166,-0.430644 0.9707,-0.581055 0.31899,-0.15037 0.62432,-0.225565 0.91602,-0.225586 0.21872,2.1e-5 0.40101,0.05015 0.54687,0.150391 0.14581,0.100281 0.2643,0.234721 0.35547,0.40332 0.0911,0.16864 0.15492,0.366882 0.19141,0.594727 0.0364,0.227884 0.0547,0.464862 0.0547,0.710937 -2e-5,0.382831 -0.0319,0.770201 -0.0957,1.16211 -0.0638,0.391944 -0.13675,0.747412 -0.21875,1.066406 -0.0456,0.255224 -0.10712,0.619807 -0.18457,1.09375 -0.0775,0.473973 -0.16865,1.018569 -0.27344,1.633789 -0.10484,0.615247 -0.2165,1.280611 -0.33496,1.996094 -0.11851,0.715506 -0.23928,1.442393 -0.3623,2.180664 -0.12308,0.73829 -0.24612,1.467456 -0.36914,2.1875 -0.12308,0.720059 -0.23701,1.392258 -0.3418,2.016601 -0.10484,0.624354 -0.20055,1.182622 -0.28711,1.674805 -0.0866,0.492191 -0.15725,0.875003 -0.21191,1.148438 -0.0274,0.127606 -0.0707,0.300783 -0.12989,0.519531 -0.0593,0.218752 -0.14585,0.432944 -0.25976,0.642578 -0.11396,0.209637 -0.26435,0.391928 -0.45117,0.546875 -0.18688,0.154949 -0.41702,0.232422 -0.69043,0.232422 -0.14586,0 -0.28486,-0.04785 -0.417,-0.143555 -0.13218,-0.0957 -0.25067,-0.21647 -0.35547,-0.362305 -0.10484,-0.145832 -0.18687,-0.303058 -0.24609,-0.471679 -0.0593,-0.168618 -0.0935,-0.321287 -0.10254,-0.458008 l 2.84375,-13.507813 c 0.0273,-0.127588 0.0501,-0.24152 0.0684,-0.341796 0.0182,-0.100245 0.0273,-0.195948 0.0273,-0.28711 -2e-5,-0.100244 -0.0114,-0.19139 -0.0342,-0.273437 -0.0228,-0.08201 -0.0433,-0.159489 -0.0615,-0.232422 -0.0274,-0.08202 -0.0547,-0.154931 -0.082,-0.21875 -0.41018,0.309912 -0.84996,0.704118 -1.31934,1.182617 -0.46942,0.478531 -0.94338,1.011733 -1.42187,1.599609 -0.47854,0.587905 -0.95705,1.212253 -1.43555,1.873047 -0.47853,0.660819 -0.93198,1.323904 -1.36035,1.989258 -0.33726,0.519541 -0.69956,1.066415 -1.08691,1.640625 -0.38739,0.574227 -0.77704,1.150724 -1.16895,1.729492 -0.39194,0.578783 -0.77248,1.157558 -1.1416,1.736328 -0.36916,0.578781 -0.70412,1.132491 -1.00488,1.661133 -0.14585,0.255212 -0.29624,0.583336 -0.45117,0.984375 -0.15497,0.401044 -0.32586,0.792971 -0.5127,1.175781 -0.18686,0.382814 -0.38738,0.710939 -0.60156,0.984375 -0.21421,0.273438 -0.45802,0.410157 -0.73145,0.410157 -0.20964,0 -0.3851,-0.0319 -0.52636,-0.0957 -0.14129,-0.0638 -0.25295,-0.148112 -0.33497,-0.25293 -0.082,-0.104817 -0.14128,-0.227864 -0.17773,-0.369141 -0.0365,-0.141275 -0.0547,-0.293944 -0.0547,-0.458008 -1e-5,-0.209634 0.0205,-0.419269 0.0615,-0.628906 0.041,-0.209633 0.0843,-0.410154 0.12988,-0.601562 0.19139,-0.802081 0.39191,-1.599606 0.60156,-2.392578 0.20962,-0.792964 0.4261,-1.604161 0.64942,-2.433594 0.22329,-0.829419 0.45343,-1.688468 0.69042,-2.577149 0.23697,-0.888661 0.47851,-1.834298 0.72461,-2.836914 0.0638,-0.282539 0.13671,-0.59927 0.21875,-0.950195 0.082,-0.350898 0.1595,-0.706366 0.23243,-1.066406 0.0729,-0.360011 0.13214,-0.708644 0.17773,-1.045899 0.0456,-0.337223 0.0684,-0.638004 0.0684,-0.902343 -1e-5,-0.236963 -0.0182,-0.42609 -0.0547,-0.567383 -0.0365,-0.141259 -0.10483,-0.211897 -0.20508,-0.211914 -0.33725,1.7e-5 -0.69272,0.125342 -1.0664,0.375976 -0.37371,0.250668 -0.75197,0.581071 -1.13477,0.991211 -0.38282,0.410172 -0.76108,0.879573 -1.13476,1.408203 -0.37371,0.52866 -0.72918,1.073256 -1.06641,1.633789 -0.33725,0.56056 -0.6517,1.11427 -0.94336,1.661133 -0.29167,0.546886 -0.54233,1.039073 -0.75195,1.476563 -0.0456,0.09116 -0.11166,0.216481 -0.19824,0.375976 -0.0866,0.159515 -0.20053,0.382822 -0.3418,0.669922 -0.14128,0.287118 -0.31446,0.65398 -0.51953,1.100586 -0.20509,0.446622 -0.44662,1.011725 -0.72461,1.695313 -0.278,0.683599 -0.59929,1.499353 -0.96387,2.447265 -0.36459,0.947919 -0.77474,2.059897 -1.23047,3.335938 -0.082,0.21875 -0.22559,0.396484 -0.43066,0.533203 -0.20508,0.136718 -0.417,0.205077 -0.63574,0.205078 -0.47396,-10e-7 -0.8226,-0.127605 -1.0459,-0.382813 -0.22331,-0.255208 -0.33497,-0.569661 -0.33496,-0.943359 -1e-5,-0.164062 0.0228,-0.346353 0.0684,-0.546875 z" />
  <path
     inkscape:connector-curvature="0"
     id="path3266"
     style="font-size:28px;font-style:normal;font-variant:normal;font-weight:normal;font-stretch:normal;line-height:125%;letter-spacing:0px;word-spacing:0px;fill:#e64b00;fill-opacity:1;stroke:none;font-family:MV Boli;-inkscape-font-specification:MV Boli"
     d="m 115.4375,31.068359 c 0,-0.319009 0.0456,-0.656248 0.13672,-1.011718 0.30989,-1.23958 0.6722,-2.454097 1.08691,-3.643555 0.41471,-1.189446 0.79069,-2.372062 1.12793,-3.547852 0.33724,-1.17577 0.61751,-2.16698 0.84082,-2.973632 0.2233,-0.806628 0.42155,-1.499336 0.59473,-2.078125 0.17317,-0.578762 0.33267,-1.077785 0.47851,-1.497071 0.14583,-0.419254 0.30534,-0.833968 0.47852,-1.24414 0.10937,-0.246077 0.23014,-0.501285 0.36231,-0.765625 0.13215,-0.264305 0.2757,-0.50812 0.43066,-0.731446 0.15494,-0.223288 0.31672,-0.40558 0.48535,-0.546875 0.16861,-0.141257 0.34407,-0.211894 0.52637,-0.211914 0.37369,2e-5 0.65852,0.06154 0.85449,0.184571 0.19595,0.123065 0.31672,0.234719 0.3623,0.334961 l 0.12305,0.560546 c 0.13671,-0.0091 0.31444,-0.03416 0.5332,-0.07519 0.21874,-0.041 0.43977,-0.08429 0.66309,-0.129883 0.2233,-0.04555 0.43065,-0.09113 0.62207,-0.136718 0.19139,-0.04556 0.33723,-0.08657 0.4375,-0.123047 0.60155,-0.164044 1.15754,-0.30532 1.66797,-0.423828 0.5104,-0.118471 0.99575,-0.216453 1.45605,-0.293946 0.46027,-0.07745 0.90005,-0.13442 1.31934,-0.170898 0.41925,-0.03644 0.84308,-0.05467 1.27148,-0.05469 0.41926,2e-5 0.76105,0.02281 1.0254,0.06836 0.2643,0.04559 0.47393,0.107115 0.6289,0.18457 0.15493,0.07749 0.26203,0.168639 0.32129,0.273437 0.0592,0.104837 0.0888,0.216491 0.0889,0.334961 -2e-5,0.109394 -0.0297,0.225605 -0.0889,0.348633 -0.0593,0.123065 -0.15725,0.239276 -0.29394,0.348633 -0.13674,0.109393 -0.31448,0.205096 -0.53321,0.287109 -0.21877,0.08205 -0.4922,0.136737 -0.82031,0.164063 -0.082,0.01825 -0.27118,0.05243 -0.56738,0.102539 -0.29625,0.05015 -0.61753,0.104835 -0.96387,0.164062 -0.34637,0.05926 -0.6745,0.116229 -0.98438,0.170899 -0.30991,0.0547 -0.5241,0.09572 -0.64257,0.123047 l 0.0137,0 c -0.0547,0.0091 -0.18459,0.04331 -0.38965,0.102539 -0.20509,0.05926 -0.45347,0.127621 -0.74512,0.205078 -0.29168,0.07749 -0.60841,0.166358 -0.95019,0.266601 -0.34181,0.100277 -0.67905,0.198259 -1.01172,0.293946 -0.3327,0.09572 -0.64031,0.186865 -0.92285,0.273437 -0.28257,0.0866 -0.51043,0.157243 -0.6836,0.211914 -0.556,0.218766 -0.99122,0.508154 -1.30566,0.868164 -0.31446,0.360041 -0.56284,0.763361 -0.74512,1.209961 -0.0365,0.08205 -0.0912,0.221042 -0.16406,0.416993 -0.0729,0.195976 -0.15268,0.419283 -0.23926,0.669921 -0.0866,0.250664 -0.18002,0.517265 -0.28027,0.799805 -0.10027,0.282564 -0.19597,0.551444 -0.28711,0.806641 -0.0911,0.255219 -0.17091,0.48764 -0.23926,0.697265 -0.0684,0.209646 -0.11622,0.364594 -0.14355,0.464844 -0.0273,0.09116 -0.0456,0.173187 -0.0547,0.246094 -0.009,0.07293 -0.0137,0.127613 -0.0137,0.164062 -1e-5,0.0547 0.0137,0.08204 0.041,0.08203 0.13671,9e-6 0.42154,-0.06151 0.8545,-0.184571 0.43293,-0.123037 0.93879,-0.275706 1.51757,-0.458008 0.57877,-0.182281 1.19856,-0.378244 1.85938,-0.58789 0.66079,-0.209625 1.29426,-0.405588 1.90039,-0.587891 0.6061,-0.18228 1.14614,-0.334949 1.62012,-0.458008 0.47394,-0.123035 0.81574,-0.184558 1.02539,-0.18457 0.31899,1.2e-5 0.53318,0.05242 0.64257,0.157227 0.10936,0.104829 0.16405,0.22104 0.16407,0.348632 -2e-5,0.328136 -0.11623,0.615245 -0.34864,0.861329 -0.23243,0.246103 -0.52182,0.460296 -0.86816,0.642578 -0.10939,0.0547 -0.31219,0.134449 -0.6084,0.239258 -0.29624,0.104827 -0.61525,0.211923 -0.95703,0.321289 -0.34181,0.109384 -0.66766,0.214201 -0.97754,0.314453 -0.30991,0.100269 -0.53321,0.173185 -0.66992,0.21875 -0.89324,0.346362 -1.62013,0.631193 -2.18066,0.854492 -0.56056,0.223315 -1.01401,0.405606 -1.36036,0.546875 -0.34636,0.141283 -0.61296,0.248379 -0.7998,0.321289 -0.18686,0.07292 -0.36003,0.134447 -0.51953,0.18457 -0.15951,0.05014 -0.33497,0.09799 -0.52637,0.143555 -0.19141,0.04558 -0.45574,0.109381 -0.79297,0.191406 -0.082,0.191413 -0.17774,0.4808 -0.28711,0.868164 -0.10938,0.387375 -0.2142,0.788416 -0.31445,1.203125 -0.10027,0.414718 -0.18458,0.799808 -0.25293,1.155274 -0.0684,0.355471 -0.10254,0.601565 -0.10254,0.738281 0,0.164065 0.0228,0.284833 0.0684,0.362305 0.0456,0.07748 0.10026,0.129884 0.16406,0.157226 0.0638,0.02735 0.1276,0.04102 0.19141,0.04102 0.0638,2e-6 0.11393,2e-6 0.15039,0 0.43749,2e-6 0.96386,-0.0638 1.5791,-0.191406 0.61523,-0.127602 1.22363,-0.296222 1.8252,-0.50586 0.57421,-0.200518 1.07551,-0.419268 1.5039,-0.65625 0.42838,-0.236975 0.8317,-0.458004 1.20996,-0.663086 0.37825,-0.205074 0.74739,-0.378251 1.10743,-0.519531 0.36001,-0.141271 0.75421,-0.216467 1.18261,-0.225586 0.0911,5e-6 0.19823,0.0091 0.32129,0.02734 0.12303,0.01823 0.23924,0.05241 0.34863,0.102539 0.10936,0.05014 0.19823,0.116215 0.26661,0.198242 0.0683,0.08204 0.0934,0.186853 0.0752,0.314453 -0.0365,0.264327 -0.16863,0.524092 -0.39648,0.779297 -0.22788,0.255211 -0.51499,0.501305 -0.86133,0.738281 -0.34637,0.236982 -0.73374,0.464846 -1.16211,0.683594 -0.4284,0.218752 -0.8659,0.426108 -1.3125,0.62207 -0.44663,0.195965 -0.88413,0.373699 -1.3125,0.533204 -0.4284,0.159505 -0.81121,0.298502 -1.14844,0.416992 -0.83855,0.291666 -1.6543,0.505859 -2.44726,0.642578 -0.79298,0.136718 -1.50392,0.205077 -2.13282,0.205078 -0.69271,-10e-7 -1.22363,-0.129883 -1.59277,-0.389648 -0.36914,-0.259766 -0.55371,-0.69043 -0.55371,-1.291993 z" />
  <path
     inkscape:connector-curvature="0"
     id="path3268"
     style="font-size:28px;font-style:normal;font-variant:normal;font-weight:normal;font-stretch:normal;line-height:125%;letter-spacing:0px;word-spacing:0px;fill:#e64b00;fill-opacity:1;stroke:none;font-family:MV Boli;-inkscape-font-specification:MV Boli"
     d="m 137.07422,16.037109 c 0.0547,-0.236962 0.12304,-0.489891 0.20508,-0.758789 0.082,-0.268862 0.1914,-0.514956 0.32812,-0.738281 0.13671,-0.223289 0.31445,-0.410138 0.5332,-0.560547 0.21875,-0.150372 0.49674,-0.225567 0.83399,-0.225586 0.319,1.9e-5 0.60383,0.08889 0.85449,0.266602 0.25064,0.177753 0.47623,0.357765 0.67676,0.540039 0.23697,0.154966 0.46483,0.469418 0.68359,0.943359 0.21874,0.473975 0.44433,1.057308 0.67676,1.75 0.23241,0.692723 0.48306,1.476577 0.75195,2.351563 0.26887,0.875012 0.56509,1.791027 0.88868,2.748047 0.32355,0.95704 0.68585,1.934578 1.08691,2.932617 0.40103,0.998053 0.85676,1.971034 1.36719,2.918945 0.082,0.145838 0.17772,0.316736 0.28711,0.512695 0.10936,0.195968 0.22101,0.380538 0.33496,0.553711 0.11391,0.173181 0.21873,0.319014 0.31445,0.4375 0.0957,0.118493 0.16632,0.177737 0.21191,0.177735 0.0273,2e-6 0.0592,-0.06836 0.0957,-0.205078 0.0364,-0.136716 0.0774,-0.300778 0.12304,-0.492188 0.0456,-0.191403 0.0934,-0.387366 0.14356,-0.587891 0.0501,-0.200516 0.098,-0.364578 0.14355,-0.492187 0.17316,-0.419266 0.36229,-0.90006 0.56739,-1.442383 0.20506,-0.542311 0.43292,-1.19856 0.68359,-1.96875 0.25063,-0.770173 0.52635,-1.68391 0.82715,-2.741211 0.30076,-1.05728 0.63344,-2.310534 0.99805,-3.759765 0.0911,-0.355454 0.1891,-0.758774 0.29394,-1.209961 0.1048,-0.451156 0.20506,-0.911442 0.30078,-1.38086 0.0957,-0.469383 0.17999,-0.927391 0.25293,-1.374023 0.0729,-0.446596 0.12303,-0.833965 0.15039,-1.162109 -2e-5,-0.05467 0.005,-0.150371 0.0137,-0.28711 0.009,-0.136699 0.025,-0.291646 0.0479,-0.464844 0.0228,-0.173156 0.0524,-0.353169 0.0889,-0.540039 0.0364,-0.186828 0.0843,-0.357726 0.14356,-0.512695 0.0592,-0.154926 0.13442,-0.28253 0.22558,-0.382812 0.0911,-0.100239 0.2005,-0.150369 0.32813,-0.150391 0.12758,2.2e-5 0.28481,0.01825 0.47168,0.05469 0.18682,0.03648 0.35772,0.09117 0.51269,0.164063 0.17316,0.237 0.33038,0.521831 0.47168,0.854492 0.14126,0.332703 0.21189,0.781596 0.21192,1.34668 -3e-5,0.355488 -0.0365,0.781594 -0.10938,1.27832 -0.0729,0.496763 -0.16636,1.029965 -0.28027,1.599609 -0.11396,0.569678 -0.24156,1.155289 -0.38281,1.756836 -0.1413,0.601577 -0.28486,1.178074 -0.43067,1.729493 -0.14585,0.551444 -0.28485,1.057303 -0.41699,1.517578 -0.13218,0.460297 -0.24384,0.840831 -0.33496,1.141601 -0.16408,0.528656 -0.33498,1.073252 -0.5127,1.633789 -0.17775,0.560555 -0.37371,1.148445 -0.58789,1.763672 -0.21421,0.615241 -0.44663,1.266933 -0.69726,1.955078 -0.25067,0.688156 -0.53095,1.424158 -0.84082,2.208008 -0.13674,0.355471 -0.29397,0.71094 -0.47168,1.066406 -0.17775,0.355471 -0.38055,0.676759 -0.6084,0.963868 -0.22788,0.287109 -0.48537,0.519531 -0.77246,0.697265 -0.28713,0.177735 -0.60842,0.266602 -0.96387,0.266602 -0.20965,0 -0.42612,-0.02962 -0.64941,-0.08887 -0.22333,-0.05924 -0.41245,-0.180013 -0.56739,-0.362305 -0.74741,-0.865884 -1.41277,-1.84798 -1.99609,-2.946289 -0.58335,-1.098303 -1.10515,-2.246739 -1.56543,-3.445313 -0.4603,-1.19856 -0.86817,-2.410798 -1.22363,-3.636718 -0.35548,-1.2259 -0.67905,-2.399402 -0.9707,-3.520508 l -0.082,-0.314453 c -0.0365,-0.12759 -0.0706,-0.257473 -0.10253,-0.389649 -0.0319,-0.132147 -0.0638,-0.252915 -0.0957,-0.362305 -0.0319,-0.109359 -0.0684,-0.198227 -0.10937,-0.266601 -0.041,-0.06834 -0.0889,-0.102524 -0.14356,-0.102539 -0.0547,1.5e-5 -0.12305,0.100275 -0.20508,0.300781 -0.082,0.200536 -0.16407,0.426121 -0.24609,0.676758 -0.082,0.250665 -0.15723,0.49448 -0.22559,0.731445 -0.0684,0.236993 -0.11166,0.387383 -0.12988,0.451172 -0.0638,0.236992 -0.15951,0.57651 -0.28711,1.018555 -0.12761,0.442069 -0.27116,0.941092 -0.43066,1.49707 -0.15951,0.556 -0.33269,1.14389 -0.51953,1.763672 -0.18686,0.6198 -0.36687,1.219083 -0.54004,1.797852 -0.17319,0.578782 -0.33725,1.114263 -0.49219,1.606445 -0.15495,0.492192 -0.28256,0.888676 -0.38281,1.189453 -0.082,0.236983 -0.1823,0.542321 -0.30078,0.916016 -0.1185,0.373701 -0.23699,0.749677 -0.35547,1.127929 -0.1185,0.378257 -0.22787,0.722333 -0.32813,1.032227 -0.10026,0.309897 -0.16406,0.514974 -0.1914,0.615234 -0.10938,0.346355 -0.27117,0.608399 -0.48535,0.786133 -0.2142,0.177734 -0.43067,0.266601 -0.64942,0.266602 -0.13672,-10e-7 -0.27344,-0.04785 -0.41016,-0.143555 -0.13672,-0.0957 -0.25748,-0.211914 -0.3623,-0.348633 -0.10482,-0.136718 -0.19141,-0.28483 -0.25977,-0.444336 -0.0684,-0.159504 -0.10254,-0.303059 -0.10253,-0.430664 -1e-5,-0.07292 0.0228,-0.189126 0.0684,-0.348633 0.0456,-0.159504 0.11849,-0.430662 0.21875,-0.813476 l 0.35547,-1.408203 z" />
  <path
     inkscape:connector-curvature="0"
     id="path3270"
     style="font-size:28px;font-style:normal;font-variant:normal;font-weight:normal;font-stretch:normal;line-height:125%;letter-spacing:0px;word-spacing:0px;fill:#e64b00;fill-opacity:1;stroke:none;font-family:MV Boli;-inkscape-font-specification:MV Boli"
     d="m 154.52734,30.529297 c 0.41927,-0.300779 0.84538,-0.489906 1.27832,-0.567383 0.43294,-0.07747 0.89095,-0.138995 1.37403,-0.18457 l 3.41797,-13.835938 c -0.0365,1.7e-5 -0.13901,-0.0023 -0.30762,-0.0068 -0.16863,-0.0045 -0.35548,-0.01821 -0.56055,-0.04102 -0.20508,-0.02277 -0.40788,-0.06151 -0.6084,-0.116211 -0.20052,-0.05467 -0.35091,-0.132145 -0.45117,-0.232422 -0.0456,-0.06378 -0.10254,-0.148095 -0.1709,-0.25293 -0.0684,-0.1048 -0.13444,-0.218732 -0.19824,-0.341797 -0.0638,-0.123029 -0.11849,-0.248354 -0.16406,-0.375976 -0.0456,-0.127586 -0.0684,-0.25519 -0.0684,-0.382813 -1e-5,-0.209617 0.0889,-0.385072 0.2666,-0.526367 0.17773,-0.141257 0.39648,-0.255189 0.65625,-0.341797 0.25976,-0.08657 0.54003,-0.148092 0.84082,-0.18457 0.30077,-0.03644 0.57421,-0.05467 0.82031,-0.05469 1.14843,2e-5 2.21256,0.0342 3.19239,0.102539 0.9798,0.06838 1.89582,0.216491 2.74804,0.444336 0.8522,0.227884 1.65428,0.551451 2.40625,0.970704 0.75194,0.419288 1.46971,0.979834 2.15332,1.68164 0.25519,0.264339 0.49901,0.560563 0.73145,0.888672 0.2324,0.32814 0.43748,0.685887 0.61523,1.073242 0.17772,0.387384 0.32127,0.802097 0.43067,1.244141 0.10935,0.44207 0.16404,0.909192 0.16406,1.401367 -2e-5,0.264334 -0.0137,0.542329 -0.041,0.833984 -0.0274,0.291678 -0.0638,0.542328 -0.10937,0.751953 -0.26434,1.057301 -0.63576,1.993824 -1.11426,2.809571 -0.47853,0.815761 -1.03452,1.54037 -1.66797,2.173828 -0.63348,0.633468 -1.32846,1.182621 -2.08496,1.647461 -0.75652,0.464847 -1.54038,0.870445 -2.35156,1.216797 -0.81121,0.346356 -1.63608,0.647137 -2.47461,0.902343 -0.83855,0.25521 -1.65431,0.483074 -2.44727,0.683594 l 0.0137,0 c -0.35548,0.109376 -0.73829,0.205079 -1.14844,0.28711 -0.41016,0.08203 -0.82488,0.15039 -1.24414,0.205078 -0.41928,0.05469 -0.83627,0.09798 -1.25098,0.129883 -0.41472,0.0319 -0.80436,0.04785 -1.16894,0.04785 -0.40105,0 -0.73829,-0.02506 -1.01172,-0.0752 -0.27344,-0.05013 -0.49447,-0.11849 -0.66309,-0.205078 -0.16862,-0.08659 -0.28939,-0.18457 -0.3623,-0.293946 -0.0729,-0.109374 -0.10938,-0.227863 -0.10938,-0.355468 0,-0.182291 0.0524,-0.371418 0.15723,-0.567383 0.10481,-0.195962 0.27571,-0.380532 0.51269,-0.553711 z m 6.01563,-3.923828 c -0.10938,0.464849 -0.22332,0.943364 -0.3418,1.435547 -0.1185,0.492191 -0.23243,0.975264 -0.3418,1.449218 l 0.31446,-0.06836 c 0.20051,-0.04557 0.47167,-0.113929 0.81347,-0.205078 0.34179,-0.09114 0.736,-0.205075 1.18262,-0.341797 0.44661,-0.136715 0.91601,-0.300777 1.4082,-0.492188 0.49218,-0.191401 1.01399,-0.421544 1.56543,-0.690429 0.55142,-0.268875 1.09602,-0.574213 1.63379,-0.916016 0.53775,-0.341791 1.05272,-0.713209 1.54493,-1.114258 0.49217,-0.401034 0.92511,-0.831698 1.29882,-1.291992 0.37368,-0.460278 0.67219,-0.94335 0.89551,-1.449219 0.22329,-0.505849 0.33494,-1.032215 0.33496,-1.579101 -2e-5,-0.555978 -0.10939,-1.082345 -0.32812,-1.579102 -0.21877,-0.496731 -0.51272,-0.957017 -0.88184,-1.380859 -0.36916,-0.423814 -0.79754,-0.802068 -1.28515,-1.134766 -0.48765,-0.332666 -0.99579,-0.617497 -1.52442,-0.854492 -0.52866,-0.236963 -1.06414,-0.416975 -1.60644,-0.540039 -0.54233,-0.12303 -1.05503,-0.184553 -1.53809,-0.18457 -0.6836,1.768244 -1.26694,3.563815 -1.75,5.386718 -0.48308,1.822927 -0.94793,3.673185 -1.39453,5.550782 z" />
  <path
     inkscape:connector-curvature="0"
     id="path3272"
     style="font-size:28px;font-style:normal;font-variant:normal;font-weight:normal;font-stretch:normal;line-height:125%;letter-spacing:0px;word-spacing:0px;fill:#e64b00;fill-opacity:1;stroke:none;font-family:MV Boli;-inkscape-font-specification:MV Boli"
     d="m 185.91602,33.730469 c -0.19143,0 -0.36005,-0.03646 -0.50586,-0.109375 -0.14585,-0.07292 -0.26662,-0.16862 -0.36231,-0.28711 -0.0957,-0.118489 -0.16863,-0.255207 -0.21875,-0.410156 -0.0501,-0.154947 -0.0752,-0.309895 -0.0752,-0.464844 -2e-5,-0.136717 0.0364,-0.325845 0.10937,-0.567382 0.0729,-0.241535 0.16633,-0.512694 0.28027,-0.813477 0.11392,-0.300778 0.23925,-0.615231 0.37598,-0.943359 0.13671,-0.328122 0.26887,-0.642574 0.39649,-0.94336 0.12758,-0.300776 0.23696,-0.578771 0.32812,-0.833984 0.0911,-0.255203 0.15493,-0.455724 0.19141,-0.601563 0.0364,-0.164056 0.082,-0.360019 0.13672,-0.58789 0.0547,-0.227858 0.11619,-0.47623 0.18457,-0.745117 0.0683,-0.268873 0.1367,-0.551425 0.20507,-0.847657 0.0684,-0.296215 0.13899,-0.594718 0.21192,-0.895508 -0.12762,0.02735 -0.28485,0.05242 -0.47168,0.0752 -0.18687,0.0228 -0.38511,0.0433 -0.59473,0.06152 -0.30079,0.02735 -0.59702,0.06837 -0.88867,0.123047 -0.29168,0.0547 -0.59018,0.11622 -0.89551,0.18457 -0.30535,0.06837 -0.62208,0.141285 -0.95019,0.21875 -0.32814,0.07748 -0.67905,0.157235 -1.05274,0.239258 -0.54688,0.118498 -1.09376,0.250659 -1.64062,0.396485 -0.54689,0.14584 -1.11655,0.218757 -1.70899,0.21875 -0.1823,7e-6 -0.35092,-0.04784 -0.50586,-0.143555 -0.15495,-0.0957 -0.32813,-0.166334 -0.51953,-0.211914 -0.1823,0.291674 -0.35547,0.603848 -0.51953,0.936523 -0.16407,0.332689 -0.31446,0.674486 -0.45117,1.025391 -0.13673,0.350917 -0.25977,0.697271 -0.36914,1.039062 -0.10938,0.341802 -0.20508,0.66309 -0.28711,0.963868 -0.0456,0.164066 -0.0843,0.37598 -0.11621,0.635742 -0.0319,0.259768 -0.0615,0.524091 -0.0889,0.792969 -0.0273,0.268882 -0.0547,0.526369 -0.082,0.77246 -0.0274,0.246096 -0.0547,0.442059 -0.082,0.587891 -0.0274,0.13672 -0.082,0.27116 -0.16406,0.40332 -0.082,0.132162 -0.1823,0.25293 -0.30079,0.362305 -0.11849,0.109375 -0.25065,0.198242 -0.39648,0.266602 -0.14584,0.06836 -0.29167,0.102539 -0.4375,0.102539 -0.25521,0 -0.46257,-0.0752 -0.62207,-0.225586 -0.15951,-0.150391 -0.28711,-0.337239 -0.38281,-0.560547 -0.0957,-0.223306 -0.16179,-0.467121 -0.19824,-0.731445 -0.0365,-0.264322 -0.0547,-0.505858 -0.0547,-0.72461 0,-0.555987 0.0684,-1.132484 0.20508,-1.729492 0.13671,-0.597001 0.32128,-1.20312 0.55371,-1.818359 0.23242,-0.615228 0.50585,-1.235019 0.82031,-1.859375 0.31445,-0.624341 0.65397,-1.246411 1.01855,-1.866211 0.30078,-0.55598 0.67448,-1.198557 1.1211,-1.927735 0.44661,-0.729154 0.94563,-1.478828 1.49707,-2.249023 0.55142,-0.770168 1.14843,-1.524399 1.79101,-2.262695 0.64257,-0.738265 1.31021,-1.396793 2.00293,-1.975586 0.6927,-0.578758 1.40364,-1.04588 2.13282,-1.401367 0.72915,-0.35545 1.45376,-0.533184 2.17382,-0.533204 0.7565,2e-5 1.38768,0.136739 1.89356,0.410157 0.50584,0.273456 0.90916,0.642596 1.20996,1.107422 0.30076,0.464861 0.51268,1.007178 0.63574,1.626953 0.12303,0.619807 0.18455,1.276057 0.18457,1.96875 -2e-5,0.610691 -0.0387,1.239596 -0.11621,1.886718 -0.0775,0.647148 -0.17319,1.280611 -0.28711,1.900391 -0.11395,0.619802 -0.237,1.216806 -0.36914,1.791016 -0.13218,0.574227 -0.25295,1.093758 -0.3623,1.558593 l -0.47852,1.859375 c -0.0182,0.05469 -0.0524,0.164068 -0.10254,0.328125 -0.0501,0.164068 -0.11395,0.36231 -0.1914,0.594727 -0.0775,0.232426 -0.16408,0.483077 -0.25977,0.751953 -0.0957,0.268884 -0.19142,0.533207 -0.28711,0.792969 -0.0957,0.259768 -0.18687,0.499026 -0.27344,0.717773 -0.0866,0.218752 -0.1618,0.396487 -0.22558,0.533203 l 0.0137,-0.01367 c -0.0638,0.236981 -0.13218,0.478518 -0.20508,0.72461 -0.0729,0.246095 -0.17319,0.467123 -0.30078,0.663086 -0.12762,0.195964 -0.29168,0.355469 -0.49219,0.478515 -0.20053,0.123047 -0.4603,0.184571 -0.77929,0.184571 z m 0.69726,-17.117188 c -0.41017,1.7e-5 -0.81805,0.08433 -1.22363,0.25293 -0.40561,0.168636 -0.80438,0.389665 -1.19629,0.663086 -0.39194,0.273453 -0.77247,0.592463 -1.1416,0.957031 -0.36915,0.364598 -0.72007,0.738296 -1.05274,1.121094 -0.33269,0.382826 -0.64486,0.767917 -0.93652,1.155273 -0.29168,0.387383 -0.556,0.74513 -0.79297,1.073242 -0.0365,0.0547 -0.0843,0.125338 -0.14355,0.211915 -0.0593,0.0866 -0.1185,0.182303 -0.17774,0.287109 -0.0593,0.104829 -0.11622,0.214204 -0.1709,0.328125 -0.0547,0.113943 -0.10027,0.216482 -0.13672,0.307617 l 1.40821,0 c 0.5104,1.1e-5 1.09374,-0.03645 1.75,-0.109375 0.65624,-0.07291 1.30565,-0.159494 1.94824,-0.259766 0.64256,-0.100249 1.23273,-0.202788 1.77051,-0.307617 0.53774,-0.104806 0.94334,-0.184559 1.21679,-0.239258 0.0365,-0.118477 0.0706,-0.277982 0.10254,-0.478515 0.0319,-0.200509 0.0615,-0.423816 0.0889,-0.669922 0.0273,-0.246081 0.0478,-0.508125 0.0615,-0.786133 0.0137,-0.277981 0.0205,-0.562811 0.0205,-0.854492 -1e-5,-0.236965 -0.009,-0.508123 -0.0273,-0.813477 -0.0183,-0.305323 -0.0729,-0.59471 -0.16406,-0.868164 -0.0912,-0.273421 -0.23016,-0.503564 -0.417,-0.690429 -0.18686,-0.186832 -0.44891,-0.280257 -0.78613,-0.280274 z" />
  <path
     inkscape:connector-curvature="0"
     id="path3274"
     style="font-size:28px;font-style:normal;font-variant:normal;font-weight:normal;font-stretch:normal;line-height:125%;letter-spacing:0px;word-spacing:0px;fill:#e64b00;fill-opacity:1;stroke:none;font-family:MV Boli;-inkscape-font-specification:MV Boli"
     d="m 253.96484,18.595703 c -1e-5,0.619803 -0.24154,1.16212 -0.72461,1.626953 -0.48308,0.464853 -1.03451,0.697275 -1.65429,0.697266 -0.47397,9e-6 -0.87729,-0.166332 -1.20996,-0.499024 -0.33269,-0.332672 -0.49903,-0.735992 -0.49903,-1.209961 0,-0.61978 0.25065,-1.171211 0.75196,-1.654296 0.50129,-0.48306 1.06184,-0.724597 1.68164,-0.72461 0.47395,1.3e-5 0.86815,0.168633 1.18261,0.50586 0.31445,0.337252 0.47167,0.756522 0.47168,1.257812 z m -2.63867,9.269531 c 0,0.628908 -0.24154,1.173504 -0.72461,1.633789 -0.48308,0.460287 -1.03451,0.69043 -1.65429,0.69043 -0.47397,0 -0.87729,-0.166341 -1.20997,-0.499023 -0.33268,-0.332682 -0.49902,-0.736002 -0.49902,-1.209961 0,-0.628904 0.25293,-1.182615 0.75879,-1.661133 0.50586,-0.478512 1.06412,-0.71777 1.6748,-0.717774 0.47396,4e-6 0.86816,0.168624 1.18262,0.50586 0.31445,0.337243 0.47168,0.756513 0.47168,1.257812 z" />
  <text
     xml:space="preserve"
     style="font-size:40px;font-style:normal;font-weight:normal;line-height:125%;letter-spacing:0px;word-spacing:0px;fill:#000000;fill-opacity:1;stroke:none;font-family:Sans"
     x="171"
     y="-41.5"
     id="text3110"
     sodipodi:linespacing="125%"><tspan
       sodipodi:role="line"
       id="tspan3112"
       x="171"
       y="-41.5"> </tspan></text>
  <path
     inkscape:connector-curvature="0"
     id="path3270-0"
     style="font-size:28px;font-style:normal;font-variant:normal;font-weight:normal;font-stretch:normal;line-height:125%;letter-spacing:0px;word-spacing:0px;fill:#e64b00;fill-opacity:1;stroke:none;font-family:MV Boli;-inkscape-font-specification:MV Boli"
     d="m 192.05177,30.697237 c 0.41927,-0.300778 0.84538,-0.489906 1.27832,-0.567383 0.43294,-0.07747 0.89095,-0.138995 1.37403,-0.18457 l 3.41797,-13.835938 c -0.0365,1.7e-5 -0.13901,-0.0023 -0.30761,-0.0068 -0.16864,-0.0045 -0.35548,-0.01821 -0.56056,-0.04102 -0.20508,-0.02277 -0.40788,-0.06151 -0.6084,-0.116211 -0.20052,-0.05467 -0.35091,-0.132145 -0.45117,-0.232422 -0.0456,-0.06378 -0.10254,-0.148095 -0.17089,-0.25293 -0.0684,-0.1048 -0.13445,-0.218732 -0.19824,-0.341797 -0.0638,-0.123029 -0.1185,-0.248354 -0.16407,-0.375976 -0.0456,-0.127586 -0.0684,-0.25519 -0.0684,-0.382813 -1e-5,-0.209617 0.0889,-0.385072 0.2666,-0.526367 0.17773,-0.141257 0.39648,-0.255189 0.65625,-0.341797 0.25976,-0.08657 0.54003,-0.148092 0.84082,-0.18457 0.30077,-0.03644 0.57421,-0.05467 0.82031,-0.05469 1.14843,2e-5 2.21256,0.0342 3.19239,0.102539 0.9798,0.06838 1.89582,0.216491 2.74804,0.444336 0.8522,0.227884 1.65429,0.551451 2.40625,0.970704 0.75194,0.419288 1.46972,0.979834 2.15332,1.68164 0.25519,0.264339 0.49901,0.560563 0.73145,0.888672 0.2324,0.32814 0.43748,0.685887 0.61523,1.073242 0.17773,0.387384 0.32128,0.802097 0.43068,1.244141 0.10935,0.44207 0.16404,0.909192 0.16406,1.401367 -2e-5,0.264334 -0.0137,0.542329 -0.041,0.833984 -0.0274,0.291678 -0.0638,0.542328 -0.10936,0.751953 -0.26434,1.057301 -0.63577,1.993824 -1.11426,2.809571 -0.47854,0.815761 -1.03453,1.54037 -1.66798,2.173828 -0.63348,0.633468 -1.32846,1.182621 -2.08495,1.647461 -0.75653,0.464847 -1.54039,0.870446 -2.35156,1.216797 -0.81122,0.346356 -1.63609,0.647137 -2.47462,0.902343 -0.83855,0.25521 -1.65431,0.483074 -2.44727,0.683594 l 0.0137,0 c -0.35548,0.109376 -0.73829,0.205079 -1.14844,0.28711 -0.41016,0.08203 -0.82488,0.15039 -1.24414,0.205078 -0.41928,0.05469 -0.83627,0.09798 -1.25098,0.129883 -0.41472,0.0319 -0.80436,0.04785 -1.16894,0.04785 -0.40105,0 -0.73829,-0.02506 -1.01172,-0.0752 -0.27344,-0.05013 -0.49447,-0.11849 -0.66309,-0.205078 -0.16862,-0.08659 -0.28939,-0.18457 -0.3623,-0.293946 -0.0729,-0.109374 -0.10938,-0.227863 -0.10938,-0.355468 0,-0.182291 0.0524,-0.371418 0.15723,-0.567383 0.10482,-0.195962 0.27571,-0.380531 0.51269,-0.553711 z m 6.01563,-3.923828 c -0.10938,0.464849 -0.22332,0.943365 -0.3418,1.435547 -0.1185,0.492191 -0.23243,0.975264 -0.3418,1.449218 l 0.31446,-0.06836 c 0.20051,-0.04557 0.47167,-0.113929 0.81347,-0.205078 0.34179,-0.09114 0.736,-0.205076 1.18262,-0.341797 0.44661,-0.136716 0.91601,-0.300778 1.4082,-0.492189 0.49219,-0.191401 1.01399,-0.421544 1.56543,-0.690429 0.55142,-0.268875 1.09602,-0.574213 1.6338,-0.916016 0.53774,-0.341791 1.05271,-0.713209 1.54492,-1.114258 0.49217,-0.401034 0.92511,-0.831698 1.29883,-1.291992 0.37367,-0.460278 0.67219,-0.94335 0.89551,-1.449219 0.22328,-0.505849 0.33493,-1.032215 0.33495,-1.579101 -2e-5,-0.555978 -0.10938,-1.082345 -0.32812,-1.579102 -0.21876,-0.496731 -0.51271,-0.957017 -0.88183,-1.380859 -0.36917,-0.423814 -0.79755,-0.802068 -1.28516,-1.134766 -0.48765,-0.332666 -0.99579,-0.617497 -1.52441,-0.854492 -0.52867,-0.236963 -1.06415,-0.416975 -1.60645,-0.540039 -0.54233,-0.12303 -1.05503,-0.184553 -1.53809,-0.18457 -0.6836,1.768244 -1.26694,3.563815 -1.75,5.386718 -0.48308,1.822927 -0.94793,3.673185 -1.39453,5.550783 z" />
  <path
     inkscape:connector-curvature="0"
     id="path3260-4"
     style="font-size:28px;font-style:normal;font-variant:normal;font-weight:normal;font-stretch:normal;line-height:125%;letter-spacing:0px;word-spacing:0px;fill:#e64b00;fill-opacity:1;stroke:none;font-family:MV Boli;-inkscape-font-specification:MV Boli"
     d="m 210.64739,25.878904 c 0.16406,-0.683586 0.40103,-1.383131 0.71093,-2.098633 0.30989,-0.715485 0.67448,-1.433259 1.09375,-2.15332 0.41927,-0.720042 0.8864,-1.4287 1.40138,-2.125977 0.51495,-0.697252 1.06183,-1.37173 1.64061,-2.023437 0.57877,-0.651677 1.17577,-1.266911 1.79102,-1.845704 0.61522,-0.578758 1.23274,-1.109682 1.85253,-1.592773 0.29167,-0.200502 0.56055,-0.332664 0.80665,-0.396484 0.24608,-0.06378 0.50584,-0.09568 0.77929,-0.0957 0.29166,2e-5 0.55142,0.04331 0.7793,0.129883 0.22785,0.08661 0.45572,0.243834 0.6836,0.47168 0.0729,0.08205 0.15037,0.154966 0.23241,0.21875 0.082,0.06382 0.15951,0.09572 0.23243,0.0957 0.0182,1.8e-5 0.041,-0.02049 0.0684,-0.06152 0.0273,-0.041 0.0569,-0.08885 0.0889,-0.143555 0.0319,-0.05467 0.0706,-0.111635 0.11622,-0.170898 0.0456,-0.05923 0.10024,-0.102522 0.16406,-0.129883 0.15493,-0.0729 0.33951,-0.12075 0.55371,-0.143555 0.21418,-0.02277 0.43065,-0.03416 0.64942,-0.03418 0.41013,1.8e-5 0.80662,0.07522 1.18944,0.225586 0.3828,0.15041 0.72005,0.362322 1.01172,0.635742 0.69269,0.647152 1.21907,1.421892 1.57912,2.324219 0.35999,0.902358 0.54001,1.873061 0.54003,2.91211 -2e-5,0.929698 -0.13674,1.932302 -0.41016,3.007812 -0.237,0.947925 -0.57651,1.868498 -1.01855,2.761719 -0.44207,0.893234 -0.9616,1.731775 -1.55859,2.515625 -0.59703,0.783857 -1.2624,1.499352 -1.9961,2.146484 -0.73373,0.647138 -1.51532,1.203126 -2.34473,1.667969 -0.82944,0.464844 -1.69532,0.827147 -2.59765,1.086913 -0.90236,0.259765 -1.81838,0.389649 -2.74804,0.389649 -0.86591,0 -1.64291,-0.132162 -2.33107,-0.396484 -0.68815,-0.264324 -1.27149,-0.638021 -1.75,-1.121094 -0.47852,-0.483072 -0.84309,-1.057289 -1.09375,-1.722656 -0.25065,-0.665362 -0.37598,-1.403643 -0.37598,-2.214844 0,-0.34635 0.0205,-0.694981 0.0615,-1.045898 0.041,-0.350906 0.10709,-0.708652 0.19824,-1.073242 z m 2.31055,0.916014 c -0.10028,0.455735 -0.15041,0.865892 -0.1504,1.230469 -10e-6,0.510422 0.0889,0.959315 0.26661,1.346681 0.17772,0.387372 0.42838,0.710939 0.75194,0.970703 0.32356,0.259767 0.71093,0.455731 1.16211,0.587891 0.45116,0.132162 0.94564,0.198242 1.4834,0.198241 0.63802,10e-7 1.28742,-0.100259 1.94824,-0.300782 0.6608,-0.200518 1.30565,-0.492184 1.93458,-0.875 0.62888,-0.382809 1.235,-0.843095 1.81835,-1.380859 0.58333,-0.537755 1.12336,-1.148432 1.62013,-1.832031 0.49672,-0.683587 0.93877,-1.426425 1.32616,-2.228516 0.38735,-0.802074 0.69954,-1.654287 0.93652,-2.55664 0.0911,-0.328114 0.15721,-0.669911 0.19825,-1.025391 0.041,-0.355456 0.0615,-0.697253 0.0615,-1.025391 -2e-5,-0.528631 -0.0593,-1.034491 -0.17774,-1.517577 -0.1185,-0.483058 -0.31447,-0.911444 -0.58788,-1.285156 -0.27345,-0.373683 -0.63349,-0.672184 -1.08008,-0.895508 -0.44663,-0.223291 -0.99351,-0.334944 -1.64063,-0.334961 -0.0912,1.7e-5 -0.1618,0.03875 -0.21191,0.116211 -0.0501,0.07749 -0.10256,0.175472 -0.15723,0.293945 -0.0456,0.100277 -0.098,0.205095 -0.15723,0.314454 -0.0593,0.109391 -0.13673,0.207372 -0.23241,0.293945 -0.0957,0.0866 -0.2142,0.157241 -0.35548,0.211914 -0.14129,0.0547 -0.31674,0.08205 -0.52636,0.08203 -0.15496,1.7e-5 -0.29168,-0.03416 -0.41015,-0.102539 -0.11851,-0.06834 -0.237,-0.161767 -0.35548,-0.280273 -0.0547,-0.05467 -0.10027,-0.09797 -0.13672,-0.129883 -0.0365,-0.03188 -0.0775,-0.04783 -0.12304,-0.04785 -0.082,1.6e-5 -0.18913,0.03647 -0.32128,0.109375 -0.13218,0.07293 -0.2689,0.159522 -0.41017,0.259765 -0.14129,0.100277 -0.27801,0.205095 -0.41016,0.314453 -0.13217,0.109392 -0.23471,0.205095 -0.30761,0.28711 -0.61981,0.638036 -1.23731,1.333022 -1.85253,2.084961 -0.61525,0.751965 -1.18264,1.528982 -1.70216,2.331054 -0.51954,0.802093 -0.97299,1.611013 -1.36034,2.426758 -0.38738,0.815764 -0.66765,1.601895 -0.84082,2.358399 z" />
  <path
     inkscape:connector-curvature="0"
     id="path3244-0"
     style="font-size:28px;font-style:normal;font-variant:normal;font-weight:normal;font-stretch:normal;line-height:125%;letter-spacing:0px;word-spacing:0px;fill:#e64b00;fill-opacity:1;stroke:none;font-family:MV Boli;-inkscape-font-specification:MV Boli"
     d="m 227.94729,29.718735 c 0.30989,0.10938 0.62662,0.23699 0.9502,0.38282 0.32356,0.14583 0.65852,0.28483 1.00488,0.41699 0.34635,0.13216 0.70865,0.24382 1.08691,0.33496 0.37825,0.0911 0.78157,0.13672 1.20996,0.13672 0.5013,0 1.00716,-0.0592 1.51758,-0.17774 0.51041,-0.11848 1.00943,-0.29394 1.49707,-0.52636 0.48762,-0.23242 0.95474,-0.51497 1.40137,-0.84766 0.4466,-0.33268 0.85675,-0.71777 1.23047,-1.15527 0.41014,-0.46484 0.75193,-0.88639 1.02538,-1.26465 0.27343,-0.37825 0.49446,-0.71549 0.66309,-1.01172 0.1686,-0.29622 0.28937,-0.55142 0.3623,-0.76562 0.0729,-0.21419 0.10936,-0.39876 0.10938,-0.55372 -2e-5,-0.22785 -0.0775,-0.42609 -0.23242,-0.59472 -0.15497,-0.16861 -0.36232,-0.30761 -0.62207,-0.41699 -0.25978,-0.10937 -0.55373,-0.18912 -0.88183,-0.23926 -0.32815,-0.0501 -0.66994,-0.0752 -1.02539,-0.0752 -0.20965,10e-6 -0.45574,0.007 -0.73829,0.0205 -0.28256,0.0137 -0.56967,0.0273 -0.86132,0.041 -0.29168,0.0137 -0.57423,0.0251 -0.84766,0.0342 -0.27345,0.009 -0.51043,0.0137 -0.71094,0.0137 -0.30079,1e-5 -0.61296,-0.0342 -0.93652,-0.10254 -0.32358,-0.0684 -0.64031,-0.18 -0.9502,-0.33496 -0.3099,-0.15494 -0.59701,-0.36457 -0.86132,-0.62891 -0.26433,-0.26431 -0.48308,-0.59244 -0.65625,-0.98437 -0.0547,-0.1276 -0.10483,-0.27799 -0.15039,-0.45118 -0.0456,-0.17316 -0.0684,-0.36001 -0.0684,-0.56054 0,-0.21874 0.016,-0.4261 0.0479,-0.62207 0.0319,-0.19595 0.0706,-0.38508 0.11621,-0.56739 0.1276,-0.45571 0.33951,-0.91827 0.63574,-1.38769 0.29622,-0.46939 0.65168,-0.92739 1.06641,-1.37402 0.4147,-0.4466 0.86587,-0.87954 1.35351,-1.29883 0.48762,-0.41925 0.98892,-0.81346 1.50391,-1.18262 0.51496,-0.36912 1.02082,-0.7018 1.51758,-0.99805 0.49673,-0.2962 0.9593,-0.54913 1.38769,-0.75878 0.60155,-0.29165 1.21451,-0.50356 1.83887,-0.63575 0.62434,-0.13214 1.24185,-0.19822 1.85254,-0.19824 0.36457,2e-5 0.71092,0.0479 1.03906,0.14356 0.32811,0.0957 0.6175,0.23472 0.86817,0.41699 0.25063,0.18231 0.44887,0.4079 0.59472,0.67676 0.14582,0.2689 0.21873,0.57651 0.21875,0.92285 -2e-5,0.20054 -0.0228,0.36916 -0.0684,0.50586 -0.0456,0.13673 -0.10483,0.24839 -0.17773,0.33496 -0.0729,0.0866 -0.15269,0.14813 -0.23926,0.18457 -0.0866,0.0365 -0.17547,0.0547 -0.2666,0.0547 -0.24611,2e-5 -0.4717,-0.0273 -0.67676,-0.082 -0.20509,-0.0547 -0.40334,-0.11619 -0.59472,-0.18457 -0.19143,-0.0683 -0.38283,-0.13215 -0.57422,-0.19141 -0.19143,-0.0592 -0.40106,-0.0888 -0.62891,-0.0889 -0.67449,2e-5 -1.36037,0.13446 -2.05762,0.40332 -0.69728,0.2689 -1.37631,0.6107 -2.03711,1.02539 -0.66082,0.41473 -1.28517,0.8773 -1.87305,1.3877 -0.5879,0.51043 -1.11426,1.00717 -1.5791,1.49023 -0.2461,0.25522 -0.42611,0.51043 -0.54004,0.76563 -0.11394,0.25522 -0.1709,0.49676 -0.1709,0.72461 0,0.33725 0.14583,0.60157 0.4375,0.79296 0.29166,0.19142 0.64713,0.28713 1.06641,0.28711 0.24608,2e-5 0.52408,-0.004 0.83398,-0.0137 0.30989,-0.009 0.62662,-0.0205 0.9502,-0.0342 0.32356,-0.0137 0.63801,-0.0273 0.94336,-0.041 0.30533,-0.0137 0.57649,-0.0205 0.81348,-0.0205 0.56509,2e-5 1.10741,0.0798 1.62695,0.23926 0.51952,0.15952 0.9798,0.39422 1.38086,0.7041 0.40103,0.30991 0.72232,0.695 0.96387,1.15528 0.24152,0.46029 0.36229,0.98666 0.3623,1.5791 -1e-5,0.36459 -0.0547,0.73373 -0.16406,1.10742 -0.10939,0.3737 -0.25978,0.74968 -0.45117,1.12793 -0.19142,0.37826 -0.41017,0.75196 -0.65625,1.12109 -0.24611,0.36915 -0.50589,0.73145 -0.7793,1.08692 -0.4922,0.63802 -1.04135,1.23958 -1.64746,1.80468 -0.60613,0.56511 -1.25099,1.0573 -1.93457,1.47657 -0.68361,0.41927 -1.40594,0.75195 -2.16699,0.99805 -0.76108,0.24609 -1.54266,0.36913 -2.34473,0.36913 -0.34636,0 -0.70183,-0.0319 -1.06641,-0.0957 -0.36459,-0.0638 -0.72461,-0.15723 -1.08008,-0.28028 -0.35547,-0.12305 -0.69043,-0.27799 -1.00488,-0.46484 -0.31446,-0.18685 -0.59017,-0.39876 -0.82715,-0.63574 -0.23698,-0.23698 -0.42611,-0.49903 -0.56738,-0.78614 -0.14128,-0.2871 -0.21192,-0.59928 -0.21191,-0.93652 -1e-5,-0.16406 0.0251,-0.32129 0.0752,-0.47168 0.0501,-0.15039 0.17545,-0.22558 0.37597,-0.22559 z" />
</svg>
